 Snezhnaya Koroleva

«THE SNOW QUEEN»

La Regina delle Nevi




La regina della neve è un film d'animazione sovietico del 1957,diretto da Lev Atamanov;
è un adattamento dell'omonima fiaba di Hans Christian Andersen.
È conosciuto anche come La Regina delle Nevi.

.: Scheda del Film :.

Titolo originale Snezhnaya Koroleva
Lingua originale russo
Paese Unione Sovietica
Anno 1957
Durata 55 min
Colore colore
Audio sonoro
Genere Cinema d'animazione
Regia Lev Atamanov
Soggetto Hans Christian Andersen
Sceneggiatura Lev Atamanov, Nikolay Erdman, Bob Fisher, Georgiy Grebner, Alan Lipscott, Mikhail Svetlov, Nikolai Zabolotsky
Produttore Lev Atamanov
Fotografia Mikhail Druyan
Montaggio Hugo Grimaldi
Musiche Frank Skinner

.: Doppiatori :.

Vladimir Gribkov: Ole Lukoje
Mariya Babanova: La regina delle nevi
anina Zhejmo: Gerda
Sergei Martinson: Kay

.: Trama :.

Gerda e Kai sono due bambini, vicini di casa ed amici per la pelle; però, durante una tempesta di neve, il
piccolo Kai viene colpito da una scheggia di ghiaccio che porta in sé una maledizione. Il maleficio, opera
della leggendaria e maligna Regina delle nevi, gela il cuore di Kai, rendendolo a tratti cattivo ed
insensibile; a peggiore la situazione, la Regina rapisce il bambino e lo conduce nel suo irraggiungibile
palazzo di ghiaccio. Gerda, convinta di poter salvare il suo amichetto, decide di partire per raggiungerlo,
pur sapendo che più passa il tempo e più la maledizione si impadronirà di Kai. Ma il viaggio è lungo e
tortuoso; per poter arrivare fino alla dimora della Regina, Gerda è costretta a vagare tra luoghi impervi e
inospitali, arrivando ad affrontare un ostacolo dietro l'altro, riuscendo però, grazie alla sua forza di volontà
e all'aiuto di altre persone, a raggiungere il palazzo di ghiaccio. E' talmente grande la bontà d'animo di
Gerda che la Regina, mossa a compassione, libera Kai dalla maledizione e lo lascia libero di tornare a
casa insieme alla sua amica.

Tratto da Wikipedia!

.: Premi :.

Leone d'oro nella categoria film d'animazione al Festival di Venezia del 1957.
Primo premio nella categoria film d'animazione al Festival di Cannes del 1957.

.: Curiosità :.

Il regista giapponese Hayao Miyazaki ha detto di aver cominciato a lavorare nel campo dell'animazione
proprio dopo aver visto questo film; Miyazaki aveva avuto alcune difficoltà agli inizi della sua carriera e
pareva sul punto di cambiare mestiere, ma la visione de La regina delle nevi lo convinse a continuare il
suo lavoro negli anime.

.: Scheda tecnica del filmato :.

CODE
[b]General[/b]

Unique ID                        : 193482803865805232783828918185580249696 (0x918F6EBCD622155EB6378233583B4260)
Format                           : Matroska
File size                        : 697 MiB
Duration                         : 1h 10mn
Overall bit rate                 : 1 377 Kbps
Encoded date                     : UTC 2011-04-20 23:53:47
Writing application              : mkvmerge v4.6.0 ('Still Crazy After All These Years') built on Mar 10 2011 02:50:32
Writing library                  : libebml v1.2.0 + libmatroska v1.1.0

[b]Video[/b]

ID                               : 2
Format                           : MPEG-4 Visual
Format profile                   : Advanced Simple@L5
Format settings, BVOP            : Yes
Format settings, QPel            : No
Format settings, GMC             : No warppoints
Format settings, Matrix          : Default (H.263)
Codec ID                         : XVID
Codec ID/Hint                    : XviD
Duration                         : 1h 10mn
Bit rate                         : 1 222 Kbps
Width                            : 512 pixels
Height                           : 384 pixels
Display aspect ratio             : 4:3
Frame rate                       : 25.000 fps
Color space                      : YUV
Chroma subsampling               : 4:2:0
Bit depth                        : 8 bits
Scan type                        : Progressive
Compression mode                 : Lossy
Bits/(Pixel*Frame)               : 0.249
Stream size                      : 618 MiB (89%)
Title                            : Snezhnaya Koroleva 1957
Writing library                  : XviD 1.2.0SMP (UTC 2006-01-08)

[b]Audio[/b]

ID                               : 3
Format                           : MPEG Audio
Format version                   : Version 1
Format profile                   : Layer 3
Mode                             : Joint stereo
Mode extension                   : MS Stereo
Muxing mode                      : Header stripping
Codec ID                         : A_MPEG/L3
Codec ID/Hint                    : MP3
Duration                         : 1h 10mn
Bit rate mode                    : Constant
Bit rate                         : 128 Kbps
Channel(s)                       : 2 channels
Sampling rate                    : 48.0 KHz
Compression mode                 : Lossy
Delay relative to video          : 504ms
Stream size                      : 64.7 MiB (9%)
Writing library                  : LAME3.97b
Encoding settings                : -m j -V 4 -q 2 -lowpass 17 -b 128

Text #1
ID                               : 1
Format                           : UTF-8
Codec ID                         : S_TEXT/UTF8
Codec ID/Info                    : UTF-8 Plain Text
Title                            : Italian
Language                         : Italian

Text #2
ID                               : 4
Format                           : UTF-8
Codec ID                         : S_TEXT/UTF8
Codec ID/Info                    : UTF-8 Plain Text
Title                            : English
Language                         : English